# xmcd CD database file
#
# Track frame offsets:
#	187
#	32647
#	65197
#	92320
#	116072
#	135797
#	160567
#
# Disc length: 2525 seconds
#
# Revision: 0
# Processed by: cddbd v1.5PL3 Copyright (c) Steve Scherf et al.
# Submitted via: CDex 1.51
#
DISCID=4d09db07
DTITLE=Wynton Kelly - Whisper Not
DYEAR=1958
DGENRE=Jazz
TTITLE0=Whisper Not
TTITLE1=Action
TTITLE2=Dark Eyes
TTITLE3=Strong Man
TTITLE4=Ill Wind
TTITLE5=Don't Explain
TTITLE6=You Can't Get Away
EXTD=YEAR: 1958
EXTT0=
EXTT1=
EXTT2=
EXTT3=
EXTT4=
EXTT5=
EXTT6=
PLAYORDER=
